<svg width="20" height="20" viewBox="0 0 20 20" fill="none" xmlns="http://www.w3.org/2000/svg">
<path d="M17.81 7.09092C17.9142 7.37418 17.8263 7.69 17.6016 7.89186L16.1919 9.17466C16.2277 9.4449 16.2472 9.72165 16.2472 10.0016C16.2472 10.2817 16.2277 10.5584 16.1919 10.8286L17.6016 12.1114C17.8263 12.3133 17.9142 12.6291 17.81 12.9124C17.6668 13.2998 17.4942 13.671 17.2956 14.0291L17.1426 14.2929C16.9277 14.651 16.6868 14.9896 16.423 15.3087C16.2309 15.5431 15.9119 15.6212 15.6254 15.5301L13.8118 14.9538C13.3756 15.2891 12.8937 15.5691 12.3793 15.7808L11.9723 17.6399C11.9072 17.9361 11.6793 18.1706 11.3797 18.2194C10.9304 18.2943 10.4681 18.3334 9.996 18.3334C9.5239 18.3334 9.06157 18.2943 8.61226 18.2194C8.31272 18.1706 8.08482 17.9361 8.0197 17.6399L7.61272 15.7808C7.09829 15.5691 6.61643 15.2891 6.18015 14.9538L4.3699 15.5333C4.08338 15.6245 3.76431 15.5431 3.57222 15.3119C3.30849 14.9929 3.06756 14.6543 2.85267 14.2961L2.69965 14.0324C2.50104 13.6742 2.32848 13.3031 2.18523 12.9156C2.08104 12.6324 2.16895 12.3166 2.3936 12.1147L3.80338 10.8319C3.76757 10.5584 3.74803 10.2817 3.74803 10.0016C3.74803 9.72165 3.76757 9.4449 3.80338 9.17466L2.3936 7.89186C2.16895 7.69 2.08104 7.37418 2.18523 7.09092C2.32848 6.70348 2.50104 6.33231 2.69965 5.97417L2.85267 5.71045C3.06756 5.3523 3.30849 5.0137 3.57222 4.69462C3.76431 4.4602 4.08338 4.38206 4.3699 4.47322L6.1834 5.04951C6.61969 4.71416 7.10155 4.43415 7.61597 4.22252L8.02295 2.36344C8.08807 2.06716 8.31598 1.83274 8.61552 1.7839C9.06482 1.70576 9.52715 1.66669 9.99925 1.66669C10.4713 1.66669 10.9337 1.70576 11.383 1.78064C11.6825 1.82948 11.9104 2.0639 11.9756 2.36018L12.3825 4.21927C12.897 4.4309 13.3788 4.7109 13.8151 5.04625L15.6286 4.46997C15.9151 4.37881 16.2342 4.4602 16.4263 4.69137C16.69 5.01044 16.9309 5.34905 17.1458 5.70719L17.2989 5.97091C17.4975 6.32906 17.67 6.70022 17.8133 7.08767L17.81 7.09092ZM9.99925 12.6063C11.4383 12.6063 12.6039 11.4407 12.6039 10.0016C12.6039 8.56257 11.4383 7.39697 9.99925 7.39697C8.56017 7.39697 7.39458 8.56257 7.39458 10.0016C7.39458 11.4407 8.56017 12.6063 9.99925 12.6063Z" fill="#637381"/>
</svg>
