<svg width="20" height="20" viewBox="0 0 20 20" fill="none" xmlns="http://www.w3.org/2000/svg">
<path d="M1.66669 4.79167C1.66669 4.21549 2.13218 3.75 2.70835 3.75H15.2084C15.7845 3.75 16.25 4.21549 16.25 4.79167C16.25 5.36784 15.7845 5.83333 15.2084 5.83333H2.70835C2.13218 5.83333 1.66669 5.36784 1.66669 4.79167ZM3.75002 10C3.75002 9.42383 4.21552 8.95833 4.79169 8.95833H17.2917C17.8679 8.95833 18.3334 9.42383 18.3334 10C18.3334 10.5762 17.8679 11.0417 17.2917 11.0417H4.79169C4.21552 11.0417 3.75002 10.5762 3.75002 10ZM16.25 15.2083C16.25 15.7845 15.7845 16.25 15.2084 16.25H2.70835C2.13218 16.25 1.66669 15.7845 1.66669 15.2083C1.66669 14.6322 2.13218 14.1667 2.70835 14.1667H15.2084C15.7845 14.1667 16.25 14.6322 16.25 15.2083Z" fill="#919EAB"/>
</svg>
