<svg width="20" height="20" viewBox="0 0 20 20" fill="none" xmlns="http://www.w3.org/2000/svg">
<path d="M9.99996 3.22917C6.25973 3.22917 3.22913 6.25977 3.22913 10V11.3021C3.22913 11.735 2.88082 12.0833 2.44788 12.0833C2.01493 12.0833 1.66663 11.735 1.66663 11.3021V10C1.66663 5.39714 5.3971 1.66667 9.99996 1.66667C14.6028 1.66667 18.3333 5.39714 18.3333 10V14.6908C18.3333 16.2728 17.0507 17.5553 15.4655 17.5553L11.875 17.5521C11.6048 18.0176 11.1002 18.3333 10.5208 18.3333H9.47913C8.6165 18.3333 7.91663 17.6335 7.91663 16.7708C7.91663 15.9082 8.6165 15.2083 9.47913 15.2083H10.5208C11.1002 15.2083 11.6048 15.5241 11.875 15.9896L15.4687 15.9928C16.1881 15.9928 16.7708 15.4102 16.7708 14.6908V10C16.7708 6.25977 13.7402 3.22917 9.99996 3.22917ZM6.35413 8.4375H6.87496C7.45113 8.4375 7.91663 8.903 7.91663 9.47917V13.125C7.91663 13.7012 7.45113 14.1667 6.87496 14.1667H6.35413C5.20504 14.1667 4.27079 13.2324 4.27079 12.0833V10.5208C4.27079 9.37175 5.20504 8.4375 6.35413 8.4375ZM13.6458 8.4375C14.7949 8.4375 15.7291 9.37175 15.7291 10.5208V12.0833C15.7291 13.2324 14.7949 14.1667 13.6458 14.1667H13.125C12.5488 14.1667 12.0833 13.7012 12.0833 13.125V9.47917C12.0833 8.903 12.5488 8.4375 13.125 8.4375H13.6458Z" fill="#919EAB"/>
<path d="M9.99996 3.22917C6.25973 3.22917 3.22913 6.25977 3.22913 10V11.3021C3.22913 11.735 2.88082 12.0833 2.44788 12.0833C2.01493 12.0833 1.66663 11.735 1.66663 11.3021V10C1.66663 5.39714 5.39709 1.66667 9.99996 1.66667C14.6028 1.66667 18.3333 5.39714 18.3333 10V14.6908C18.3333 16.2728 17.0507 17.5553 15.4655 17.5553L11.875 17.5521C11.6048 18.0176 11.1002 18.3333 10.5208 18.3333H9.47913C8.6165 18.3333 7.91663 17.6335 7.91663 16.7708C7.91663 15.9082 8.6165 15.2083 9.47913 15.2083H10.5208C11.1002 15.2083 11.6048 15.5241 11.875 15.9896L15.4687 15.9928C16.1881 15.9928 16.7708 15.4102 16.7708 14.6908V10C16.7708 6.25977 13.7402 3.22917 9.99996 3.22917Z" fill="#919EAB"/>
</svg>
