<svg width="20" height="20" viewBox="0 0 20 20" fill="none" xmlns="http://www.w3.org/2000/svg">
<path d="M10 18.3334C14.6029 18.3334 18.3333 14.6029 18.3333 10C18.3333 5.39716 14.6029 1.66669 10 1.66669C5.39713 1.66669 1.66666 5.39716 1.66666 10C1.66666 14.6029 5.39713 18.3334 10 18.3334ZM7.19401 7.04755C7.45117 6.32164 8.14127 5.83335 8.91276 5.83335H10.8105C11.9466 5.83335 12.8646 6.75458 12.8646 7.88739C12.8646 8.62307 12.4707 9.30341 11.8327 9.67124L10.7812 10.2735C10.7747 10.6966 10.4264 11.0417 10 11.0417C9.56706 11.0417 9.21875 10.6934 9.21875 10.2604V9.82098C9.21875 9.54104 9.36849 9.28387 9.61263 9.1439L11.0547 8.31708C11.2077 8.22919 11.3021 8.06643 11.3021 7.89065C11.3021 7.61721 11.0807 7.39911 10.8105 7.39911H8.91276C8.80208 7.39911 8.70443 7.46747 8.66862 7.57164L8.6556 7.6107C8.51237 8.0176 8.06315 8.22919 7.6595 8.08596C7.25586 7.94273 7.04101 7.49351 7.18424 7.08986L7.19726 7.0508L7.19401 7.04755ZM11.0417 13.125C11.0417 13.7012 10.5762 14.1667 10 14.1667C9.42383 14.1667 8.95833 13.7012 8.95833 13.125C8.95833 12.5488 9.42383 12.0834 10 12.0834C10.5762 12.0834 11.0417 12.5488 11.0417 13.125Z" fill="#637381"/>
</svg>
